inDegrees=no
num_controls=7
num_derivatives=13
num_iterations=76
num_multipliers=7
num_parameters=0
num_slacks=7
num_states=26
objective=0.517160
objective_accelerations=0.040683
objective_balance=0.002153
objective_effort=0.044556
objective_height=0.418168
objective_ligament=0.011600
solver_duration=1015.085727
status=Solve_Succeeded
success=true
DataType=double
version=3
OpenSimVersion=4.5
endheader
time	/jointset/ground_pelvis/pelvis_tilt/value	/jointset/ground_pelvis/pelvis_tx/value	/jointset/ground_pelvis/pelvis_ty/value	/jointset/hip_l/hip_flexion_l/value	/jointset/hip_l/hip_adduction_l/value	/jointset/hip_l/hip_rotation_l/value	/jointset/back/lumbar_extension/value	/jointset/patellofemoral_l/patellar_flexion_l/value	/jointset/knee_l/knee_flexion_l/value	/jointset/knee_l/knee_adduction_l/value	/jointset/knee_l/knee_rotation_l/value	/jointset/ankle_l/ankle_angle_l/value	/jointset/subtalar_l/subtalar_angle_l/value	/jointset/ground_pelvis/pelvis_tilt/speed	/jointset/ground_pelvis/pelvis_tx/speed	/jointset/ground_pelvis/pelvis_ty/speed	/jointset/hip_l/hip_flexion_l/speed	/jointset/hip_l/hip_adduction_l/speed	/jointset/hip_l/hip_rotation_l/speed	/jointset/back/lumbar_extension/speed	/jointset/patellofemoral_l/patellar_flexion_l/speed	/jointset/knee_l/knee_flexion_l/speed	/jointset/knee_l/knee_adduction_l/speed	/jointset/knee_l/knee_rotation_l/speed	/jointset/ankle_l/ankle_angle_l/speed	/jointset/subtalar_l/subtalar_angle_l/speed	/forceset/tau_hip_flexion_l	/forceset/tau_hip_adduction_l	/forceset/tau_hip_rotation_l	/forceset/tau_knee_flexion_l	/forceset/tau_ankle_angle_l	/forceset/tau_subtalar_angle_l	/forceset/tau_lumbar_extension	lambda_cid13_p0	lambda_cid13_p1	lambda_cid13_p2	lambda_cid13_p3	lambda_cid13_p4	lambda_cid13_p5	lambda_cid14_p0	/jointset/ground_pelvis/pelvis_tilt/accel	/jointset/ground_pelvis/pelvis_tx/accel	/jointset/ground_pelvis/pelvis_ty/accel	/jointset/hip_l/hip_flexion_l/accel	/jointset/hip_l/hip_adduction_l/accel	/jointset/hip_l/hip_rotation_l/accel	/jointset/back/lumbar_extension/accel	/jointset/patellofemoral_l/patellar_flexion_l/accel	/jointset/knee_l/knee_flexion_l/accel	/jointset/knee_l/knee_adduction_l/accel	/jointset/knee_l/knee_rotation_l/accel	/jointset/ankle_l/ankle_angle_l/accel	/jointset/subtalar_l/subtalar_angle_l/accel	gamma_cid13_p0	gamma_cid13_p1	gamma_cid13_p2	gamma_cid13_p3	gamma_cid13_p4	gamma_cid13_p5	gamma_cid14_p0
0.5	-0.1258744498271968	-0.05687328852619247	0.8228965149334647	0.9012197427487626	-0.3241781180749391	-0.1213075613453742	-0.7772204640707314	0.7911737952844967	0.7911737952841734	-0.1096840679699865	-0.1743588131001845	0.06997281137143606	-0.007812867682844936	-0.2193528984377641	-0.2041884944729643	-0.3451059678116313	1.518670086391445	-0.03913050017313895	0.4618318931910926	-0.840652686573467	1.45187834543551	1.451878345435633	0.1356447672526613	0.0009294588674033699	0.2457132577709224	0.035168612161986	-0.281439892498533	0.04663272582828339	-0.003603507526139049	-0.2123852673338751	0.1276658408438882	0.02382805981230921	0.3281897929059045	-4.263740374125188	-10.66430369025892	2.459307656315021	-10.68566879964963	-701.2725895580725	-53.39068807265284	-14.79323153410119	0.291379027299486	0.6585228680906994	-0.1320918702008032	-1.399041152036008	0.2279837491494152	-0.3534310826278403	1.602998597468333	-1.032084984169016	-1.032084984168999	-0.256474715373315	0.009264103123095909	0.03226687487945951	0.2621787364754454	-5.018970308409347e-08	-5.756673296908607e-07	-1.789856932590914e-08	-7.402557826947921e-08	-8.017629574095e-08	-5.883748057337041e-08	-8.132063054678851e-08
0.51	-0.1280530683087543	-0.05888213577421764	0.8194395988791073	0.9163341744199349	-0.3245585235112464	-0.1167081477757808	-0.7855458713184579	0.8056386863144754	0.8056386863144017	-0.1083410760592599	-0.1743500790605839	0.07243083236609324	-0.00744881980744341	-0.2163340840894906	-0.19757072481263	-0.3462003657875863	1.503996219267883	-0.03696029115327155	0.4580090782821029	-0.824333818343907	1.440882515093768	1.440882515093897	0.1329210852720526	0.0008203535474322232	0.2458395705963414	0.03761571098957839	-0.2882235925386392	0.047242639878055	-0.003802989677711816	-0.214489848575069	0.1273489115107597	0.02423434054551906	0.3346000554681837	-4.588013081324125	-10.71858196393734	2.3932681552438	-10.6077835614854	-705.2419616142598	-53.15815630764022	-14.2601211738735	0.3126360088589478	0.6649248805698145	-0.08659834997728097	-1.534567709210834	0.2101526671770612	-0.4030401246325038	1.660572630237002	-1.165917471621799	-1.165917471621065	-0.2852928602632955	-0.02053247801839356	-0.00491283792775904	0.2322738340888884	-7.340767885194841e-08	-4.569098348067128e-07	1.755351545783817e-07	-3.902173795900851e-08	-9.570727507086658e-08	-4.790249185761673e-08	-9.029660180768997e-08
0.52	-0.1302003979727649	-0.06082450115252813	0.8159740419272531	0.9312952657765358	-0.3249175042195573	-0.1121482290412626	-0.7937052415449838	0.8199871019585069	0.8199871019587706	-0.1070263165524261	-0.1743423429999411	0.07488857122414494	-0.007061041268128271	-0.2130951349304487	-0.1908921205300289	-0.346834147310952	1.488002023476519	-0.03484555458255052	0.4539329261891952	-0.8074452823327997	1.428583268254224	1.428583268254359	0.1299982864571032	0.0007298630890242567	0.2456568304497253	0.03991474494467862	-0.2950072925788179	0.04785255392777416	-0.004002471828467479	-0.2165944298163198	0.127031982177607	0.02464062127862902	0.3410103180304199	-4.915309473310195	-10.77313495793322	2.328190887371373	-10.55659593128654	-709.278781570826	-52.94797782620615	-13.72367884544907	0.3354059894534054	0.6706897925440197	-0.03996857968291547	-1.663106885596723	0.2168892593201741	-0.4040985194114619	1.716932153778033	-1.292768283729305	-1.292768283729302	-0.2962980822414201	0.01298707543571189	-0.02954371952760444	0.2325657619770162	-1.129718738368187e-07	-2.707407133373862e-07	5.038714109582762e-07	2.035726109237738e-08	-1.25628699694908e-07	-2.906864562046372e-08	-1.069900060158064e-07
0.53	-0.1323143227458343	-0.06269981729949775	0.8125044781609552	0.9460898970197631	-0.3252556836761187	-0.1076293817997965	-0.8016929618224109	0.8342059806365506	0.83420598063671	-0.1057424809635605	-0.1743347720937632	0.07734292577288862	-0.006651109560617568	-0.2096616036768588	-0.1841651540841526	-0.346998242641877	1.47071333737069	-0.03279126243740145	0.449741398650833	-0.7900125420109744	1.414975873144521	1.414975873144564	0.1267889718228999	0.0007570503142191562	0.2451655504435754	0.04205736763653396	-0.3014997852319785	0.0482821213186252	-0.004213322063513034	-0.2189702594484509	0.1269635904472716	0.02496077638362723	0.3471806773136775	-5.167556846030738	-10.80086191961937	2.255909943992471	-10.50438313383241	-713.3120423686403	-52.73579029617087	-13.18461935531773	0.3515453609608727	0.6746035966835268	0.007396217206354482	-1.793399971768606	0.1994890365242315	-0.4410573406270863	1.769379642951285	-1.427191104292786	-1.427191104306584	-0.330237230048908	-0.006369251811592736	-0.06620278713713219	0.2029248475632689	-1.310984113257497e-07	-1.525417190980689e-07	6.754807158618819e-07	5.333336981377057e-08	-1.367140871586579e-07	-1.291863385596207e-08	-1.128364928487537e-07
